<?xml version="1.0" encoding="UTF-8"?>
<svg width="55px" height="55px" viewBox="0 0 55 55" version="1.1" xmlns="http://www.w3.org/2000/svg" xmlns:xlink="http://www.w3.org/1999/xlink">
    <!-- Generator: Sketch 58 (84663) - https://sketch.com -->
    <title>education_accuracy_white_icon</title>
    <desc>Created with Sketch.</desc>
    <g id="Page-1" stroke="none" stroke-width="1" fill="none" fill-rule="evenodd">
        <g id="features" transform="translate(-165.000000, -23.000000)" fill-rule="nonzero">
            <g id="Untitled" transform="translate(165.000000, 23.000000)">
                <path d="M12.7,44.4814 C12.375,44.4814 12.375,44.4814 12.05,44.1564 C11.725,43.8314 11.4,43.1814 11.725,42.8564 L14,35.0564 L14,34.7314 L31.55,6.7814 C32.2,6.4564 32.85,6.1314 33.5,6.4564 L37.4,9.0564 C38.05,9.3814 38.05,10.0314 37.725,10.6814 L20.5,38.9564 L20.175,39.2814 L13.675,44.1564 C13.35,44.4814 13.025,44.4814 12.7,44.4814 Z M16.275,36.0314 L14.975,39.9314 L18.225,37.3314 L34.8,10.3564 L33.175,9.0564 L16.275,36.0314 Z" id="Shape" fill="#FFFFFF"></path>
                <path d="M32.85,17.1814 C32.525,17.1814 32.525,17.1814 32.2,16.8564 L28.2999,14.5814 C27.9749,14.2564 27.65,13.6064 27.975,12.9564 C28.3,12.3064 28.95,12.3064 29.6,12.6314 L33.5,14.9064 C34.15,15.2314 34.15,15.8814 33.825,16.5314 C33.825,16.8564 33.5,17.1814 32.85,17.1814 Z" id="Path" fill="#FFFFFF"></path>
                <path d="M50.0749,47.4062 L4.5749,47.4062 C3.9249,47.4062 3.2749,46.7562 3.2749,46.1062 C3.2749,45.4562 3.9249,44.8062 4.5749,44.8062 L50.0749,44.8062 C50.7249,44.8062 51.3749,45.4562 51.3749,46.1062 C51.3749,46.7562 50.7249,47.4062 50.0749,47.4062 Z" id="Path" fill="#FFFFFF"></path>
                <path d="M41.6252,43.1812 L41.3002,43.1812 C40.6502,42.8562 40.3252,42.2062 40.6502,41.5562 C41.9502,37.9812 41.9502,34.4062 40.0002,31.8062 C38.3752,29.5312 36.1002,27.9062 33.1752,27.5812 C32.5252,27.5812 31.8752,26.9312 32.2002,26.2812 C32.2002,25.6312 32.8502,24.9812 33.5002,25.3062 C37.0752,25.6312 40.3252,27.5812 42.2752,30.5062 C44.5502,34.0812 44.5502,38.3062 42.9252,42.5312 C42.6002,42.8562 42.2752,43.1812 41.6252,43.1812 Z" id="Path" fill="#FF642A"></path>
            </g>
        </g>
    </g>
</svg>