<?xml version="1.0" encoding="UTF-8"?>
<svg width="55px" height="55px" viewBox="0 0 55 55" version="1.1" xmlns="http://www.w3.org/2000/svg" xmlns:xlink="http://www.w3.org/1999/xlink">
    <!-- Generator: Sketch 58 (84663) - https://sketch.com -->
    <title>education_pen_hovering_white_icon</title>
    <desc>Created with Sketch.</desc>
    <g id="Page-1" stroke="none" stroke-width="1" fill="none" fill-rule="evenodd">
        <g id="features" transform="translate(-315.000000, -23.000000)">
            <g id="Untitled" transform="translate(315.000000, 23.000000)">
                <polygon id="Path" fill="#FF642A" fill-rule="nonzero" points="24.328 5.59375 21.4592 13.2187 24.3599 16.1875 27.4836 12.9375"></polygon>
                <polyline id="Path" stroke="#FFFFFF" stroke-width="0.75" stroke-linecap="round" stroke-linejoin="round" points="21.2683 13.4375 24.4239 16.4375 27.5477 13.2188"></polyline>
                <path d="M26.432,39.375 L26.432,46.0312 L22.3839,46.0312 L22.3839,13.625 L24.3601,8.53125 L26.432,13.4062 L26.432,23.7812 C27.0728,22.9652 27.8358,22.2487 28.6951,21.6562 L28.6951,13.2188 C28.7265,13.0851 28.7265,12.9462 28.6951,12.8125 L25.3482,5.09375 C25.2664,4.89323 25.1259,4.72094 24.9444,4.59859 C24.7629,4.47625 24.5485,4.40932 24.3282,4.40625 C24.1038,4.4243 23.8882,4.50032 23.7034,4.62657 C23.5187,4.75282 23.3713,4.92479 23.2764,5.125 L20.0889,13.0312 L20.0889,47.0625 C20.0889,47.3526 20.2064,47.6308 20.4156,47.8359 C20.6248,48.041 20.9086,48.1562 21.2045,48.1562 L27.5795,48.1562 C27.726,48.1604 27.8719,48.1362 28.0089,48.0851 C28.1459,48.0339 28.2713,47.9568 28.3778,47.8581 C28.4844,47.7595 28.5701,47.6412 28.63,47.51 C28.6899,47.3788 28.7229,47.2374 28.727,47.0938 L28.727,41.4688 C27.8745,40.8691 27.1033,40.1655 26.432,39.375 Z" id="Path" fill="#FFFFFF" fill-rule="nonzero"></path>
                <path d="M44.8873,33.5313 L44.8873,30.4063 L42.2417,30.4063 C42.08,29.6796 41.8002,28.9833 41.413,28.3438 L43.3573,26.4375 L41.0623,24.1563 L39.1817,26 C38.545,25.5911 37.8455,25.2851 37.1098,25.0938 L37.1098,22.25 L33.9223,22.25 L33.9223,24.8438 C33.1829,25.0077 32.4734,25.2817 31.8186,25.6563 L29.8742,23.75 L27.5792,26 L29.4598,27.8438 C29.0428,28.4679 28.7307,29.1538 28.5355,29.875 L25.7305,29.875 L25.7305,33 L28.3123,33 C28.4709,33.7325 28.7624,34.4311 29.173,35.0625 L27.1967,37 L29.4917,39.25 L31.4998,37.4375 C32.1319,37.8476 32.8335,38.1439 33.5717,38.3125 L33.5717,41.0313 L36.7592,41.0313 L36.7592,38.4375 C37.5004,38.279 38.2107,38.0046 38.863,37.625 L40.8392,39.5313 L43.1342,37.2813 L41.2536,35.4688 C41.6605,34.8431 41.9618,34.1572 42.1461,33.4375 L44.8873,33.5313 Z M35.3248,35.0313 C34.6944,35.0313 34.0781,34.848 33.554,34.5046 C33.0298,34.1612 32.6212,33.6732 32.38,33.1021 C32.1387,32.5311 32.0756,31.9028 32.1986,31.2966 C32.3216,30.6904 32.6252,30.1336 33.0709,29.6965 C33.5167,29.2595 34.0847,28.9619 34.703,28.8413 C35.3213,28.7207 35.9622,28.7826 36.5446,29.0191 C37.1271,29.2557 37.6249,29.6562 37.9752,30.1701 C38.3254,30.684 38.5123,31.2882 38.5123,31.9062 C38.5123,32.7351 38.1765,33.5299 37.5787,34.116 C36.981,34.702 36.1702,35.0313 35.3248,35.0313 Z" id="Shape" fill="#FF642A" fill-rule="nonzero"></path>
            </g>
        </g>
    </g>
</svg>