<?xml version="1.0" encoding="UTF-8"?>
<svg width="55px" height="55px" viewBox="0 0 55 55" version="1.1" xmlns="http://www.w3.org/2000/svg" xmlns:xlink="http://www.w3.org/1999/xlink">
    <!-- Generator: Sketch 58 (84663) - https://sketch.com -->
    <title>education_real_time_white_icon</title>
    <desc>Created with Sketch.</desc>
    <g id="Page-1" stroke="none" stroke-width="1" fill="none" fill-rule="evenodd">
        <g id="features" transform="translate(-240.000000, -23.000000)" fill-rule="nonzero">
            <g id="Untitled" transform="translate(240.000000, 23.000000)">
                <path d="M27.3174,46.169 C23.5452,46.169 19.8576,45.0693 16.7211,43.009 C13.5846,40.9487 11.14,38.0204 9.6965,34.5943 C8.2529,31.1682 7.8752,27.3982 8.6111,23.761 C9.347,20.1239 11.1635,16.7829 13.8309,14.1607 C16.4983,11.5385 19.8967,9.7527 23.5965,9.0292 C27.2963,8.3058 31.1311,8.6771 34.6162,10.0962 C38.1013,11.5154 41.0801,13.9186 43.1758,17.002 C45.2716,20.0854 46.3902,23.7106 46.3902,27.419 C46.3902,29.8812 45.8968,32.3194 44.9383,34.5943 C43.9799,36.8691 42.575,38.9361 40.8039,40.6772 C39.0328,42.4183 36.9303,43.7994 34.6162,44.7417 C32.3022,45.684 29.8221,46.169 27.3174,46.169 Z M27.3174,11.369 C24.0959,11.369 20.9468,12.3081 18.2682,14.0675 C15.5896,15.827 13.5019,18.3278 12.2691,21.2537 C11.0363,24.1796 10.7138,27.3992 11.3422,30.5053 C11.9707,33.6115 13.522,36.4646 15.8,38.704 C18.0779,40.9434 20.9802,42.4684 24.1397,43.0863 C27.2993,43.7041 30.5743,43.387 33.5506,42.1751 C36.5269,40.9631 39.0707,38.9108 40.8605,36.2775 C42.6503,33.6443 43.6055,30.5484 43.6055,27.3815 C43.6055,23.1347 41.8895,19.0618 38.8349,16.0589 C35.7802,13.056 31.6373,11.369 27.3174,11.369 Z" id="Shape" fill="#FFFFFF"></path>
                <path d="M36.8155,34.9189212 C36.5321,34.9204 36.2542,34.8424 36.0144,34.6939 L26.5162,28.5439 C26.318,28.4187 26.1548,28.2468 26.0416,28.0437 C25.9283,27.8406 25.8685,27.613 25.8677,27.3814 L25.8677,17.0314 C25.8337,16.8275 25.8453,16.6187 25.9015,16.4196 C25.9577,16.2206 26.0574,16.0359 26.1934,15.8784 C26.3295,15.7209 26.4988,15.5944 26.6896,15.5077 C26.8803,15.4209 27.088,15.376 27.2982,15.376 C27.5083,15.376 27.716,15.4209 27.9068,15.5077 C28.0975,15.5944 28.2668,15.7209 28.4029,15.8784 C28.539,16.0359 28.6386,16.2206 28.6948,16.4196 C28.7511,16.6187 28.7626,16.8275 28.7286,17.0314 L28.7286,26.5939 L37.5784,32.3314 C37.8875,32.5438 38.1003,32.8662 38.1715,33.2303 C38.2427,33.5944 38.1668,33.9714 37.9598,34.2814 C37.8361,34.471 37.6672,34.6281 37.4678,34.7392 C37.2684,34.8503 37.0445,34.9119 36.8155,34.9189212 Z" id="Path" fill="#FF642A"></path>
            </g>
        </g>
    </g>
</svg>