<?xml version="1.0" encoding="UTF-8"?>
<svg width="55px" height="55px" viewBox="0 0 55 55" version="1.1" xmlns="http://www.w3.org/2000/svg" xmlns:xlink="http://www.w3.org/1999/xlink">
    <!-- Generator: Sketch 58 (84663) - https://sketch.com -->
    <title>education_pen_paper_white_icon</title>
    <desc>Created with Sketch.</desc>
    <g id="Page-1" stroke="none" stroke-width="1" fill="none" fill-rule="evenodd">
        <g id="features" transform="translate(-15.000000, -23.000000)" fill-rule="nonzero">
            <g id="Untitled" transform="translate(15.000000, 23.000000)">
                <polygon id="Path" fill="#FF642A" points="45.09945 5.1673345 48.1932 13.211079 47.26513 14.448579 45.09945 16.30484 42.0057 14.139204 42.0057 13.211079"></polygon>
                <path d="M48.50263,49.71679 L41.69638,49.71679 C41.07763,49.71679 40.45888,49.09804 40.45888,48.47929 L40.45888,13.829301 L40.45888,13.519926 L43.55263,4.8574216 C43.86195,4.5480466 44.17138,4.23867182 44.4807,4.23867182 C45.09945,4.23867182 45.40888,4.5480466 45.7182,4.8574216 L49.4307,13.210551 C49.4307,13.210551 49.4307,13.519926 49.4307,13.829301 L49.4307,48.78872 C49.74013,49.09804 49.12138,49.71679 48.50263,49.71679 Z M42.93388,47.24179 L47.26513,47.24179 L47.26513,13.829301 L44.79013,8.260551 L42.62445,13.829301 L42.62445,47.24179 L42.93388,47.24179 Z" id="Shape" fill="#FFFFFF"></path>
                <path d="M34.58125,49.71679 L6.7375,49.71679 C6.11875,49.71679 5.5,49.09804 5.5,48.47929 L5.5,7.332426 C5.5,6.713676 6.11875,6.094926 6.7375,6.094926 L27.15625,6.094926 C27.46568,6.094926 27.775,6.094926 28.08432,6.404301 L35.2,14.757426 C35.50932,15.066801 35.50943,15.37622 35.50943,15.37622 L35.81875,48.16997 C35.81875,48.47929 35.81875,48.78872 35.50943,49.09804 C35.2,49.40747 34.89068,49.71679 34.58125,49.71679 Z M7.975,47.24179 L33.34375,47.24179 L33.34375,15.99497 L26.5375,8.260551 L7.975,8.260551 L7.975,47.24179 Z" id="Shape" fill="#FFFFFF"></path>
                <polygon id="Path" fill="#FF642A" points="34.27171 15.68664 27.15614 15.68664 27.15614 7.333493"></polygon>
                <path d="M34.2716,16.30484 L27.15603,16.30484 C26.8466,16.30484 26.8466,16.30484 26.53728,16.30484 C26.53728,16.30484 26.22785,15.99541 26.22785,15.68609 L26.22785,7.332954 C26.22785,7.023579 26.53728,6.714204 26.8466,6.714204 C27.15603,6.714204 27.46535,6.714204 27.77478,7.023579 L34.89035,15.37666 C35.19978,15.68609 35.19978,15.99541 34.89035,16.30484 C34.89035,16.30484 34.58103,16.30484 34.2716,16.30484 Z M27.77478,14.757954 L32.41535,14.757954 L27.77478,9.189204 L27.77478,14.757954 Z" id="Shape" fill="#FFFFFF"></path>
                <path d="M45.09945,17.23247 C44.79013,17.23247 44.79013,17.23247 44.4807,16.92304 L41.07763,14.448051 C40.7682,14.138676 40.7682,13.829301 41.07763,13.210551 C41.38695,12.901176 41.69638,12.901176 42.31513,13.210551 L45.09945,15.37622 L48.1932,12.901176 C48.50263,12.591801 49.12138,12.591801 49.4307,12.901176 C49.74013,13.210551 49.74013,13.829301 49.4307,14.138676 L45.40888,16.92304 L45.09945,17.23247 Z" id="Path" fill="#FFFFFF"></path>
            </g>
        </g>
    </g>
</svg>