<?xml version="1.0" encoding="UTF-8"?>
<svg width="55px" height="55px" viewBox="0 0 55 55" version="1.1" xmlns="http://www.w3.org/2000/svg" xmlns:xlink="http://www.w3.org/1999/xlink">
    <!-- Generator: Sketch 58 (84663) - https://sketch.com -->
    <title>education_pressure_white_icon</title>
    <desc>Created with Sketch.</desc>
    <g id="Page-1" stroke="none" stroke-width="1" fill="none" fill-rule="evenodd">
        <g id="features" transform="translate(-90.000000, -23.000000)" fill-rule="nonzero">
            <g id="Untitled" transform="translate(90.000000, 23.000000)">
                <polygon id="Path" fill="#FFFFFF" points="31.5002 32.1875 31.1502 28.4062 27.6502 29.7812 27.3002 28.75 31.8502 27.375 32.5502 32.1875"></polygon>
                <path d="M39.8998,21.5312 L38.4998,20.5 L46.8998,7.09375 L43.7498,5.03125 L35.3498,18.4375 L33.9498,17.75 L43.0498,3.65625 C43.0498,3.3125 43.3998,3.3125 43.7498,3.3125 C44.0998,3.3125 44.0998,3.3125 44.4498,3.3125 L48.9998,6.0625 C48.9998,6.40625 49.3498,7.09375 48.9998,7.4375 L39.8998,21.5312 Z" id="Path" fill="#FFFFFF"></path>
                <path d="M24.8498,38.375 L24.4998,38.375 C24.1498,38.0312 24.1498,37.6875 24.1498,37.3438 L26.9498,29.0938 C26.9498,29.0938 26.9498,29.0937 26.9498,28.75 L30.0998,23.9375 L31.4998,24.9687 L28.3498,29.7812 L26.5998,35.2813 L31.4998,31.5 L34.6498,26.6875 L36.0498,27.7188 L32.8998,32.5313 C32.8998,32.5313 32.8998,32.5312 32.5498,32.875 L25.5498,38.375 C25.1998,38.375 25.1998,38.375 24.8498,38.375 Z" id="Path" fill="#FFFFFF"></path>
                <polygon id="Path" fill="#FF642A" points="32.8998 19.1245 30.4498 22.562 36.7498 26.687 39.1998 22.9058"></polygon>
                <path d="M24.8502,41.4687 C22.7502,41.4687 21.0002,40.0937 21.0002,38.0312 C21.0002,36.6562 21.7002,35.625 22.4002,34.9375 L23.1002,32.1875 C20.3002,32.875 18.5502,35.2812 18.5502,38.0312 C18.5502,41.4687 21.0002,44.2188 24.1502,44.2188 C27.3002,44.2188 30.1002,42.1563 30.4502,38.7188 C30.4502,38.375 30.4502,38.0312 30.4502,38.0312 C30.4502,37.6875 30.4502,37.3438 30.4502,37.3438 L28.0002,39.0625 C28.3502,40.0938 26.6002,41.4687 24.8502,41.4687 Z" id="Path" fill="#FFFFFF"></path>
                <path d="M34.9997,34.25 L33.2497,35.625 C33.5997,36.3125 33.5997,37 33.5997,38.0312 C33.5997,42.5 30.0997,46.2812 25.5497,46.2812 C20.9997,46.2812 17.1497,42.8437 17.1497,38.375 C17.1497,34.25 20.2997,30.8125 24.1497,30.125 L24.4997,27.375 C18.5497,27.7187 13.9997,32.1875 14.3497,38.0312 C14.6997,43.875 19.2497,48.3437 25.1997,48 C31.1497,47.6562 35.6997,43.1875 35.3497,37.3437 C35.3497,36.3125 34.9997,35.2812 34.9997,34.25 Z" id="Path" fill="#FF642A"></path>
                <path d="M38.1498,31.8442 L36.3998,33.2192 C39.1998,39.4067 36.0498,46.6255 29.7498,49.3755 C23.4498,52.1255 16.0998,49.0317 13.2998,42.8442 C10.4998,36.6567 13.6498,29.0942 19.9498,26.3442 C21.3498,25.6567 23.0998,25.313 24.8498,25.313 L25.5498,23.2505 L24.8498,23.2505 C16.7998,23.2505 10.1498,29.7817 10.1498,37.688 C10.1498,45.5942 16.7998,52.1255 24.8498,52.1255 C32.8998,52.1255 39.5498,45.5942 39.5498,37.688 C39.5498,35.6255 39.1998,33.563 38.1498,31.8442 Z" id="Path" fill="#FFFFFF"></path>
            </g>
        </g>
    </g>
</svg>